# xmcd
#
# Track frame offsets:
#	205
#	11367
#	25060
#	35565
#	45957
#	55300
#	67030
#	78320
#	88405
#	100820
#
# Disc length: 1496 seconds
#
# Revision: 0
# Processed by: cddbd v1.4b41PL3 Copyright (c) Steve Scherf et al.
# Submitted via: EZCDDA 4.3.3.2
#
DISCID=7605d60a
DTITLE=Johnny Winter - Five After Four AM
DYEAR=1900
DGENRE=
TTITLE0=Oh My Darling
TTITLE1=Five After Four AM
TTITLE2=That's What Love Does
TTITLE3=Shed So Many Tears
TTITLE4=Road Runner
TTITLE5=The Guy You Left Behind
TTITLE6=Gangster Of Love
TTITLE7=By The Light Of The Silvery Moon
TTITLE8=Leave My Woman Alone
TTITLE9=I Can't Believe You Want To Leave
EXTD=
EXTT0=
EXTT1=
EXTT2=
EXTT3=
EXTT4=
EXTT5=
EXTT6=
EXTT7=
EXTT8=
EXTT9=
PLAYORDER=
